# xmcd
#
# Track frame offsets: 
#        150
#        26712
#        42498
#        65775
#        84985
#        109033
#        129532
#        145684
#        165785
#        184667
#        203177
#        223892
#        260691
#        275554
#
# Disc length: 3940 seconds
#
# Revision: 0
# Processed by: cddbd v1.5.2PL0 Copyright (c) Steve Scherf et al.
# Submitted via: ExactAudioCopy v1.0b4
#
DISCID=d10f620e
DTITLE=Various Artist - St. Louis Blues Society presents 14 in 14
DYEAR=2014
DGENRE=Blues
TTITLE0=Arthur Williams - Midnight Blue
TTITLE1=Big George Brock - I'm 80 Years Old (I'm Worried About It)
TTITLE2=Eugene Johnson and Co. - Knocking Boots
TTITLE3=Al Holliday - Little Woman Of Mine
TTITLE4=Soulard Blues Band - It Don't Matter
TTITLE5=Rough Grooves - Mojo Syndrome
TTITLE6=Brian Curran - Made Myself Lonesome
TTITLE7=Bob ''Bumble Bee'' Kamoske - Caught In The Act
TTITLE8=Ground Floor Band - Bucket Heat
TTITLE9=Miss Molly Sims - Usual Suspects
TTITLE10=Hudson And The Hoodoo Cats - Who Do?
TTITLE11=The Jeremiah Johnson Band - Black And Blue
TTITLE12=The Bottoms Up Blues Gang - South Broadway Blues
TTITLE13=Funky Butt Brass Band - The Devil's Taxi
EXTD=
EXTT0=
EXTT1=
EXTT2=
EXTT3=
EXTT4=
EXTT5=
EXTT6=
EXTT7=
EXTT8=
EXTT9=
EXTT10=
EXTT11=
EXTT12=
EXTT13=
PLAYORDER=
